<?xml version="1.0" encoding="UTF-8"?>
<svg id="Layer_2" data-name="Layer 2" xmlns="http://www.w3.org/2000/svg" viewBox="0 0 93.43 96.6">
  <defs>
    <style>
      .cls-1 {
        fill: #fff;
      }
    </style>
  </defs>
  <g id="Layer_1-2" data-name="Layer 1">
    <path class="cls-1" d="M80.5,19.96c-5.95,4.83-12.35,5.14-18.87.99,5.1,23.8-14.51,36.03-34.8,23.89.75,4.34,3.39,8.08,3.85,12.55,1.27,12.22-8.59,24.79-20.77,26.28,2.18,3.61,7.51,9.83,2,12.93,2.53-8.06-7.23-12.46-11.92-17.42,2.61-3.22,6.59.59,10.19.28,10-.86,16.59-13.07,15.64-22.18-1.2-11.53-10.72-18.05-17.41-25.35-2.74-2.98-1.36-5.97,2.47-4.47,3.05,1.19,9.2,7.11,12.65,9.24,4.02,2.5,10.21,6.43,14.81,7.07,17.18,2.39,21.74-11.29,16.5-25.47-.88-2.39-5.5-8.26-4.14-10.24,2.64-3.83,10.59,8.25,14.49,9.83,12.55,5.08,12.52-3.12,16.07-10.59,1.4-2.95,4.33-1.14,4.16,2.08-.24,4.67-1.62,5.48,0,11.15s4.76,6.72,8,10.88c-6.19,5.08-12.82-5.76-12.93-11.43Z"/>
    <path class="cls-1" d="M41.73,23.94c-2.22-.99-10.61-7.58-9.49-9.97l2.04-1.96c.92-.02,8.5,10.58,7.45,11.93Z"/>
    <path class="cls-1" d="M74.06.06c4.04-.95,1.93,9.57-.99,8.95s-.97-7.7.99-8.95Z"/>
    <path class="cls-1" d="M11.91,60.76c-1.12.53-12.53-.02-9.94-2.97,1.21-1.37,9.38.22,9.94,2.97Z"/>
  </g>
</svg>