<?xml version="1.0" encoding="UTF-8"?>
<svg id="Layer_2" data-name="Layer 2" xmlns="http://www.w3.org/2000/svg" viewBox="0 0 47.49 44.77">
  <defs>
    <style>
      .cls-1 {
        fill: #fff;
      }
    </style>
  </defs>
  <g id="Layer_1-2" data-name="Layer 1">
    <path class="cls-1" d="M18.35.55c1.61,1.54,2.94,12.84,4.43,13.27,5.48-.76,10.86-2.45,16.38-2.94,1.25-.11,8.04-.51,8.24.32.25,1.02-.03,2.45-1.16,2.78l-22.72,7.41c-.73.84.87,17.96-1.01,22.15-.73,1.62-1.78,1.53-3.03.33-1.04-2.75-2.1-19.36-3.46-20.33-1.5-1.06-11.28,3.31-14.97,1.53-1.99-.96-.77-2.5.65-3.33,2.36-1.38,12.3-4.15,13.34-5.59,1.32-1.83-.1-11.43.47-14.47.3-1.56,1.68-2.23,2.84-1.12Z"/>
  </g>
</svg>