<?xml version="1.0" encoding="UTF-8"?>
<svg id="Layer_2" data-name="Layer 2" xmlns="http://www.w3.org/2000/svg" viewBox="0 0 86.26 72.65">
  <defs>
    <style>
      .cls-1 {
        fill: #fff;
      }
    </style>
  </defs>
  <g id="Layer_1-2" data-name="Layer 1">
    <path class="cls-1" d="M18.35.55c1.61,1.54,2.94,12.84,4.43,13.27,5.48-.76,10.86-2.45,16.38-2.94,1.25-.11,8.04-.51,8.24.32.25,1.02-.03,2.45-1.16,2.78l-22.72,7.41c-.73.84.87,17.96-1.01,22.15-.73,1.62-1.78,1.53-3.03.33-1.04-2.75-2.1-19.36-3.46-20.33-1.5-1.06-11.28,3.31-14.97,1.53-1.99-.96-.77-2.5.65-3.33,2.36-1.38,12.3-4.15,13.34-5.59,1.32-1.83-.1-11.43.47-14.47.3-1.56,1.68-2.23,2.84-1.12Z"/>
    <path class="cls-1" d="M66.31,45.24c.04-.05,1.19-.4,1.26-.39,1.81.18,2.17,7.84,3.54,8.32,4.02-.22,8.39-1.86,12.38-1.98.96-.03,2.78-.19,2.76,1.29,0,.81-.56,1.04-1.15,1.35-2.32,1.22-12.39,3.22-13.35,4.58-1.45,2.25.92,13.67-1.71,14.23-1.04.22-1.49-1.67-1.62-2.36-.63-3.4-.53-7.49-1.59-10.88-1.1-.79-8.71,3.07-9.87.05-.2-1.46,5.76-2.92,7.19-3.66.76-.39,1.58-.65,2.15-1.33v-9.21Z"/>
  </g>
</svg>