<?xml version="1.0" encoding="UTF-8"?> <svg xmlns="http://www.w3.org/2000/svg" width="43" height="13" viewBox="0 0 43 13" fill="none"> <path d="M42.9994 11.477C42.9994 12.2528 42.3577 12.8817 41.5661 12.8817C40.7745 12.8817 40.1328 12.2528 40.1328 11.477C40.1328 10.7013 40.7745 10.0724 41.5661 10.0724C42.3577 10.0724 42.9994 10.7013 42.9994 11.477Z" fill="#1DBF73"></path> <path d="M40.095 6.30859H38.5715C37.5885 6.30859 37.048 7.03078 37.048 8.28263V12.7611H34.0996V6.30859H32.8711C31.8881 6.30859 31.3476 7.03078 31.3476 8.28263V12.7611H28.3992V3.90081H31.3476V5.24928C31.8391 4.18996 32.4775 3.90081 33.4605 3.90081H37.0473V5.24928C37.5388 4.18996 38.1772 3.90081 39.1602 3.90081H40.1432L40.095 6.30859ZM27.7126 9.00551H21.6193C21.7668 10.0169 22.4051 10.5465 23.4371 10.5465C24.223 10.5465 24.7642 10.2094 24.9606 9.67975L27.5651 10.4019C26.926 11.9429 25.3536 12.8577 23.4378 12.8577C20.244 12.8577 18.7701 10.4019 18.7701 8.28332C18.7701 6.21266 20.0475 3.75692 23.2413 3.75692C26.6317 3.75692 27.7622 6.26062 27.7622 8.13874C27.7615 8.57179 27.7615 8.81297 27.7126 9.00551ZM24.9117 7.31993C24.8627 6.54978 24.2726 5.87554 23.2903 5.87554C22.3569 5.87554 21.8164 6.26062 21.62 7.31993H24.9117ZM13.6591 12.7611H16.2139L19.4567 3.94878H16.5097L14.9372 9.10144L13.3648 3.90081H10.4163L13.6591 12.7611ZM1.67033 12.7611H4.56912V6.30859H7.37003V12.7611H10.2688V3.90081H4.56912V3.37116C4.56912 2.79354 5.0117 2.40777 5.65005 2.40777H7.37003V0H5.20817C3.09526 0 1.67033 1.3005 1.67033 3.17793V3.90013H0V6.3079H1.67033V12.7611Z" fill="#404145"></path> </svg> 