<?xml version="1.0" encoding="UTF-8"?> <svg xmlns="http://www.w3.org/2000/svg" width="60" height="11" viewBox="0 0 60 11" fill="none"> <path d="M5.50989 0C5.39705 0 5.29279 0.0520414 5.24203 0.153063L3.67314 3.21432L0.248322 3.73095C0.0250335 3.76585 -0.0839474 4.08939 0.0761565 4.24753L2.54427 6.65828L1.98944 10.0448C1.96189 10.207 2.09212 10.389 2.2573 10.4083C2.31853 10.4151 2.37504 10.3985 2.42953 10.3704L5.50989 8.78236L8.59025 10.3704C8.79205 10.4737 9.06646 10.2669 9.03034 10.0451L8.47552 6.65858L10.9436 4.24783C11.1037 4.08969 10.9951 3.76605 10.7715 3.73125L7.34665 3.21462L5.77775 0.153362C5.72693 0.0522179 5.62273 0 5.50989 0ZM17.7549 0C17.6421 0 17.5378 0.0520414 17.4871 0.153063L15.9182 3.21432L12.4934 3.73095C12.2701 3.76585 12.1611 4.08939 12.3212 4.24753L14.7893 6.65828L14.2345 10.0448C14.2069 10.207 14.3372 10.389 14.5023 10.4083C14.5636 10.4151 14.6201 10.3985 14.6746 10.3704L17.7549 8.78236L20.8353 10.3704C21.0371 10.4737 21.3115 10.2669 21.2754 10.0451L20.7206 6.65858L23.1887 4.24783C23.3488 4.08969 23.2401 3.76605 23.0165 3.73125L19.5917 3.21462L18.0228 0.153362C17.972 0.0522179 17.8678 0 17.7549 0ZM30 0C29.8871 0 29.7829 0.0520414 29.7321 0.153063L28.1632 3.21432L24.7384 3.73095C24.5151 3.76585 24.4061 4.08939 24.5662 4.24753L27.0343 6.65828L26.4795 10.0448C26.452 10.207 26.5822 10.389 26.7474 10.4083C26.8086 10.4151 26.8651 10.3985 26.9196 10.3704L30 8.78236L33.0803 10.3704C33.2821 10.4737 33.5565 10.2669 33.5204 10.0451L32.9656 6.65858L35.4337 4.24783C35.5938 4.08969 35.4851 3.76605 35.2615 3.73125L31.8367 3.21462L30.2678 0.153362C30.217 0.0522179 30.1128 0 30 0ZM42.245 0C42.1322 0 42.0279 0.0520414 41.9771 0.153063L40.4082 3.21432L36.9834 3.73095C36.7601 3.76585 36.6512 4.08939 36.8113 4.24753L39.2794 6.65828L38.7246 10.0448C38.697 10.207 38.8272 10.389 38.9924 10.4083C39.0536 10.4151 39.1102 10.3985 39.1646 10.3704L42.245 8.78236L45.3254 10.3704C45.5272 10.4737 45.8016 10.2669 45.7655 10.0451L45.2106 6.65858L47.6787 4.24783C47.8388 4.08969 47.7302 3.76605 47.5066 3.73125L44.0818 3.21462L42.5129 0.153362C42.4621 0.0522179 42.3578 0 42.245 0ZM54.49 0C54.3772 0 54.2729 0.0520414 54.2222 0.153063L52.6533 3.21432L49.2285 3.73095C49.0052 3.76585 48.8962 4.08939 49.0563 4.24753L51.5244 6.65828L50.9696 10.0448C50.942 10.207 51.0723 10.389 51.2375 10.4083C51.2987 10.4151 51.3552 10.3985 51.4097 10.3704L54.49 8.78236L57.5704 10.3704C57.7722 10.4737 58.0466 10.2669 58.0105 10.0451L57.4557 6.65858L59.9238 4.24783C60.0839 4.08969 59.9752 3.76605 59.7516 3.73125L56.3268 3.21462L54.7579 0.153362C54.7071 0.0522179 54.6029 0 54.49 0Z" fill="#E9C64B"></path> </svg> 